<svg width="20" height="20" viewBox="0 0 20 20" fill="none" xmlns="http://www.w3.org/2000/svg">
<path d="M7.33333 12.6667C5.36965 12.6667 3.77778 11.0748 3.77778 9.11111C3.77778 7.14743 5.36965 5.55556 7.33333 5.55556C9.29698 5.55556 10.8889 7.14743 10.8889 9.11111C10.8889 11.0748 9.29698 12.6667 7.33333 12.6667ZM7.33333 12.6667C10.2788 12.6667 12.6667 15.0545 12.6667 18M7.33333 12.6667C4.38781 12.6667 2 15.0545 2 18M9.14542 6.05132C9.12276 5.88931 9.11111 5.7238 9.11111 5.55556C9.11111 3.59188 10.703 2 12.6667 2C14.6303 2 16.2222 3.59188 16.2222 5.55556C16.2222 7.51924 14.6303 9.11111 12.6667 9.11111M12.6667 9.11111C12.0048 9.11111 11.3852 8.93031 10.8546 8.61538M12.6667 9.11111C15.6122 9.11111 18 11.4989 18 14.4444" stroke="#051912" stroke-width="1.5" stroke-linecap="round" stroke-linejoin="round"/>
</svg>
