<svg width="20" height="20" viewBox="0 0 20 20" fill="none" xmlns="http://www.w3.org/2000/svg">
<path d="M7.525 18.0748L9.46667 16.4415C9.75834 16.1915 10.2417 16.1915 10.5333 16.4415L12.475 18.0748C12.925 18.2998 13.475 18.0748 13.6417 17.5915L14.0083 16.4831C14.1 16.2165 14.0083 15.8248 13.8083 15.6248L11.9167 13.7248C11.775 13.5915 11.6667 13.3248 11.6667 13.1331V10.7581C11.6667 10.4081 11.925 10.2415 12.25 10.3748L16.3417 12.1415C16.9833 12.4165 17.5083 12.0748 17.5083 11.3748V10.2998C17.5083 9.74147 17.0917 9.09981 16.575 8.88314L11.9167 6.87481C11.7833 6.81647 11.6667 6.64147 11.6667 6.49147V3.99147C11.6667 3.20814 11.0917 2.28314 10.3917 1.9248C10.1417 1.7998 9.85 1.7998 9.6 1.9248C8.9 2.28314 8.325 3.21647 8.325 3.99981V6.49981C8.325 6.64981 8.20834 6.82481 8.075 6.88314L3.425 8.89147C2.90834 9.09981 2.49167 9.74147 2.49167 10.2998V11.3748C2.49167 12.0748 3.01667 12.4165 3.65834 12.1415L7.75 10.3748C8.06667 10.2331 8.33334 10.4081 8.33334 10.7581V13.1331C8.33334 13.3248 8.225 13.5915 8.09167 13.7248L6.2 15.6248C6 15.8248 5.90834 16.2081 6 16.4831L6.36667 17.5915C6.51667 18.0748 7.06667 18.3081 7.525 18.0748Z" stroke="#697571" stroke-width="1.5" stroke-linecap="round" stroke-linejoin="round"/>
</svg>
