<svg width="20" height="20" viewBox="0 0 20 20" fill="none" xmlns="http://www.w3.org/2000/svg">
<path d="M4.16667 7.5V13.3333" stroke="#697571" stroke-width="1.5" stroke-linecap="round" stroke-linejoin="round"/>
<path d="M4.375 7.08366C5.87077 7.08366 7.08333 5.8711 7.08333 4.37533C7.08333 2.87955 5.87077 1.66699 4.375 1.66699C2.87923 1.66699 1.66667 2.87955 1.66667 4.37533C1.66667 5.8711 2.87923 7.08366 4.375 7.08366Z" stroke="#697571" stroke-width="1.5" stroke-linecap="round" stroke-linejoin="round"/>
<path d="M4.16667 18.333C5.54738 18.333 6.66667 17.2137 6.66667 15.833C6.66667 14.4523 5.54738 13.333 4.16667 13.333C2.78596 13.333 1.66667 14.4523 1.66667 15.833C1.66667 17.2137 2.78596 18.333 4.16667 18.333Z" stroke="#697571" stroke-width="1.5" stroke-linecap="round" stroke-linejoin="round"/>
<path d="M15.8333 18.333C17.214 18.333 18.3333 17.2137 18.3333 15.833C18.3333 14.4523 17.214 13.333 15.8333 13.333C14.4526 13.333 13.3333 14.4523 13.3333 15.833C13.3333 17.2137 14.4526 18.333 15.8333 18.333Z" stroke="#697571" stroke-width="1.5" stroke-linecap="round" stroke-linejoin="round"/>
<path d="M4.275 7.5C4.65 8.95833 5.98333 10.0417 7.55833 10.0333L10.4167 10.025C12.6 10.0167 14.4583 11.4167 15.1417 13.3667" stroke="#697571" stroke-width="1.5" stroke-linecap="round" stroke-linejoin="round"/>
</svg>
