<svg width="48" height="48" viewBox="0 0 48 48" fill="none" xmlns="http://www.w3.org/2000/svg">
<g clip-path="url(#clip0_152_32336)">
<path d="M47.9087 0.0751953H0.0917969V47.9253H47.9087V0.0751953Z" fill="url(#paint0_radial_152_32336)"/>
<path d="M23.5296 21.9762C23.1467 21.7095 22.7174 21.4919 22.2422 21.3239C21.7664 21.1559 21.2507 21.0717 20.6939 21.0717C19.8934 21.0717 19.1915 21.2082 18.5888 21.4807C17.9856 21.7533 17.4779 22.1042 17.0667 22.5335C16.655 22.9629 16.3472 23.4439 16.1446 23.9778C15.9414 24.5117 15.84 25.0391 15.84 25.5613V25.7698C15.84 26.2567 15.9414 26.7677 16.1446 27.301C16.3472 27.8349 16.6459 28.3186 17.0406 28.7538C17.4347 29.189 17.9248 29.5485 18.511 29.8327C19.0966 30.117 19.7723 30.2589 20.5376 30.2589C21.1408 30.2589 21.6886 30.1805 22.1819 30.0242C22.6747 29.8674 23.1243 29.6386 23.5302 29.3367V30.2589H25.3915V21.2466H23.5302V21.9773L23.5296 21.9762ZM23.4774 25.6994C23.4774 26.0242 23.4134 26.3517 23.2859 26.6823C23.1579 27.013 22.9696 27.3149 22.7206 27.5869C22.471 27.8594 22.1696 28.0802 21.816 28.2482C21.4619 28.4167 21.0592 28.5005 20.607 28.5005C20.1547 28.5005 19.7515 28.4167 19.3979 28.2482C19.0438 28.0802 18.7456 27.8599 18.5019 27.5869C18.2582 27.3143 18.0726 27.013 17.9451 26.6823C17.8171 26.3517 17.7536 26.0242 17.7536 25.6994V25.6295C17.7536 25.2935 17.8171 24.9597 17.9451 24.629C18.0726 24.2983 18.2582 23.997 18.5019 23.7245C18.7456 23.4519 19.0438 23.2317 19.3979 23.0631C19.7515 22.8951 20.1547 22.8109 20.607 22.8109C21.0592 22.8109 21.4624 22.8951 21.816 23.0631C22.1696 23.2311 22.471 23.4519 22.7206 23.7245C22.9696 23.997 23.1584 24.2989 23.2859 24.629C23.4134 24.9597 23.4774 25.293 23.4774 25.6295V25.6994Z" fill="white"/>
<path d="M29.3707 17.9746H27.4742V30.2578H29.3707V17.9746Z" fill="white"/>
<path d="M40.9739 25.9602C40.9739 25.5543 40.9478 25.1629 40.8955 24.7858C40.8432 24.4093 40.7184 24.0349 40.5216 23.6637C40.359 23.3389 40.1414 23.0199 39.8694 22.7069C39.5968 22.3938 39.2806 22.1154 38.9211 21.8717C38.5616 21.6279 38.1611 21.4338 37.7206 21.2887C37.2795 21.1437 36.7984 21.0711 36.2763 21.0711C35.4758 21.0711 34.7739 21.2077 34.1712 21.4802C33.568 21.7527 33.0603 22.1037 32.6491 22.533C32.2374 22.9623 31.9296 23.4434 31.727 23.9773C31.5238 24.5111 31.4224 25.0386 31.4224 25.5607V25.7693C31.4224 26.2562 31.5238 26.7671 31.727 27.3005C31.9296 27.8343 32.2283 28.3181 32.623 28.7533C33.0171 29.1885 33.5072 29.5479 34.0928 29.8322C34.6784 30.1165 35.3542 30.2583 36.1195 30.2583C36.6992 30.2583 37.2272 30.1831 37.703 30.0322C38.1782 29.8818 38.6048 29.6786 38.9819 29.4231C39.3584 29.1682 39.6864 28.8663 39.9648 28.5186C40.2432 28.1709 40.4635 27.8055 40.6262 27.4226L40.7131 27.2658L38.8342 26.7613L38.7472 26.9351C38.527 27.3645 38.1931 27.7325 37.7467 28.0397C37.3003 28.3469 36.7808 28.5005 36.1894 28.5005C35.7947 28.5005 35.4352 28.4338 35.1104 28.3005C34.7856 28.1671 34.504 27.9874 34.2667 27.7613C34.0288 27.5351 33.8374 27.2802 33.6923 26.9959C33.5472 26.7117 33.4459 26.4247 33.3878 26.1346H40.9558L40.9734 25.9607L40.9739 25.9602ZM33.5968 24.4813C33.7014 24.261 33.8342 24.0493 33.9968 23.8461C34.159 23.6434 34.3536 23.4663 34.5798 23.3154C34.8059 23.165 35.0523 23.0429 35.319 22.9501C35.5856 22.8573 35.8758 22.8109 36.1888 22.8109C36.815 22.8109 37.3515 22.9762 37.7979 23.3069C38.2443 23.6375 38.5723 24.029 38.7808 24.4813H33.5963H33.5968Z" fill="white"/>
<path d="M13.0758 20.5618L10.7168 23.5634L8.37869 20.5618H6.09922L9.52695 24.9778L10.7168 23.5634L11.9179 24.9815L15.3286 20.5618H13.0758Z" fill="white"/>
<path d="M6.26935 30.1133L6.18989 30.2189H8.35309L10.7158 27.1501L13.1206 30.2189H15.3126L15.2395 30.1234L10.7152 24.7453L6.26935 30.1133Z" fill="white"/>
</g>
<defs>
<radialGradient id="paint0_radial_152_32336" cx="0" cy="0" r="1" gradientUnits="userSpaceOnUse" gradientTransform="translate(24.0003 24) scale(23.9085 37.1909)">
<stop offset="0.43135" stop-color="#1A1A1A"/>
<stop offset="0.591358" stop-color="#1A1B1B"/>
<stop offset="0.643535" stop-color="#1D221F"/>
<stop offset="0.804292" stop-color="#212E28"/>
<stop offset="0.838959" stop-color="#283F33"/>
<stop offset="0.92" stop-color="#315542"/>
<stop offset="0.96" stop-color="#3B7055"/>
<stop offset="0.99" stop-color="#47906B"/>
<stop offset="1" stop-color="#4EA076"/>
</radialGradient>
<clipPath id="clip0_152_32336">
<rect width="48" height="48" rx="24" fill="white"/>
</clipPath>
</defs>
</svg>
